<?xml version="1.0" encoding="UTF-8" standalone="no"?>
<!-- Created with Inkscape (http://www.inkscape.org/) -->

<svg
   version="1.1"
   id="svg2"
   xml:space="preserve"
   width="666.66669"
   height="666.66669"
   viewBox="0 0 666.66669 666.66669"
   sodipodi:docname="osint.svg"
   inkscape:version="1.1.1 (3bf5ae0d25, 2021-09-20, custom)"
   xmlns:inkscape="http://www.inkscape.org/namespaces/inkscape"
   xmlns:sodipodi="http://sodipodi.sourceforge.net/DTD/sodipodi-0.dtd"
   xmlns="http://www.w3.org/2000/svg"
   xmlns:svg="http://www.w3.org/2000/svg"><defs
     id="defs6"><clipPath
       clipPathUnits="userSpaceOnUse"
       id="clipPath20"><path
         d="M 214.003,149.303 H 393.805 V 329.105 H 214.003 Z"
         id="path18" /></clipPath><clipPath
       clipPathUnits="userSpaceOnUse"
       id="clipPath32"><path
         d="M 95.769,162.004 H 320.11 V 386.346 H 95.769 Z"
         id="path30" /></clipPath></defs><sodipodi:namedview
     id="namedview4"
     pagecolor="#ffffff"
     bordercolor="#666666"
     borderopacity="1.0"
     inkscape:pageshadow="2"
     inkscape:pageopacity="0.0"
     inkscape:pagecheckerboard="0"
     showgrid="false"
     inkscape:zoom="1.0605"
     inkscape:cx="333.33334"
     inkscape:cy="333.33334"
     inkscape:window-width="1920"
     inkscape:window-height="1000"
     inkscape:window-x="1920"
     inkscape:window-y="0"
     inkscape:window-maximized="1"
     inkscape:current-layer="g8" /><g
     id="g8"
     inkscape:groupmode="layer"
     inkscape:label="osint-picto"
     transform="matrix(1.3333333,0,0,-1.3333333,0,666.66667)"><path
       d="M 303.904,144.37 H 192.492 v 24.494 h 111.412 z"
       style="fill:#2f2e2f;fill-opacity:1;fill-rule:nonzero;stroke:none"
       id="path10" /><path
       d="m 136.233,200.105 h 226.58 v 132.692 h -226.58 z m 251.079,-22.533 h -274.68 v 177.184 h 274.68 z"
       style="fill:#2f2e2f;fill-opacity:1;fill-rule:nonzero;stroke:none"
       id="path12" /><g
       id="g14"><g
         id="g16"
         clip-path="url(#clipPath20)"><g
           id="g22"
           transform="translate(280.4189,246.7959)"><path
             d="m 0,0 c 0.389,-4.742 1.467,-9.353 3.198,-13.746 -0.148,-0.086 -0.297,-0.171 -0.444,-0.259 -0.108,-0.064 -0.22,-0.125 -0.328,-0.19 -0.904,-0.55 -1.784,-1.142 -2.647,-1.766 -0.144,-0.104 -0.29,-0.207 -0.432,-0.313 -0.841,-0.625 -1.66,-1.286 -2.457,-1.98 -0.063,-0.055 -0.131,-0.1 -0.194,-0.156 -4.285,5.275 -6.867,11.649 -7.462,18.41 z M -3.438,24.208 C -1.582,22.556 0.396,21.088 2.484,19.824 0.951,15.399 0.073,10.771 -0.124,6.026 h -10.64 c 0.604,6.846 3.264,13.098 7.326,18.182 M 45.435,6.026 c -0.182,4.595 -0.975,9.078 -2.347,13.377 2.353,1.357 4.579,2.963 6.646,4.806 4.063,-5.085 6.724,-11.336 7.328,-18.183 z m -5.426,-24.961 c 0.078,-0.044 0.16,-0.082 0.238,-0.127 0.126,-0.074 0.254,-0.145 0.379,-0.22 0.748,-0.45 1.478,-0.932 2.193,-1.442 0.129,-0.091 0.256,-0.184 0.384,-0.278 0.715,-0.524 1.415,-1.076 2.094,-1.66 0.032,-0.028 0.064,-0.059 0.098,-0.087 -3.701,-3.211 -7.986,-5.525 -12.6,-6.882 2.872,3.318 5.29,6.902 7.214,10.696 M 19.931,0 v -8.569 c -0.06,-0.005 -0.119,-0.009 -0.179,-0.014 -0.135,-0.011 -0.27,-0.018 -0.404,-0.03 -1.066,-0.1 -2.12,-0.247 -3.166,-0.429 -0.176,-0.03 -0.353,-0.061 -0.529,-0.093 C 14.627,-9.328 13.611,-9.561 12.608,-9.832 12.437,-9.879 12.266,-9.929 12.094,-9.978 11.081,-10.267 10.08,-10.59 9.097,-10.957 8.98,-11.001 8.866,-11.048 8.752,-11.093 7.389,-7.529 6.512,-3.813 6.151,0 Z m 0,14.232 V 6.026 H 6.006 c 0.181,3.773 0.871,7.461 2.028,11.014 3.763,-1.533 7.763,-2.482 11.897,-2.808 m 0,21.522 V 20.275 c -3.347,0.311 -6.577,1.129 -9.631,2.376 2.328,4.753 5.569,9.169 9.631,13.103 M 10.284,34.158 C 8.163,31.409 6.351,28.505 4.857,25.48 c -1.375,0.882 -2.71,1.841 -3.961,2.928 2.825,2.451 5.998,4.364 9.388,5.75 m 25.073,0.279 c 3.642,-1.398 7.036,-3.419 10.043,-6.029 -1.421,-1.234 -2.937,-2.323 -4.516,-3.293 -1.495,3.261 -3.344,6.381 -5.527,9.322 M 25.958,20.245 v 15.993 c 4.083,-4.106 7.309,-8.759 9.586,-13.78 -3.044,-1.19 -6.262,-1.944 -9.586,-2.213 m 0,-14.219 v 8.176 c 4.056,0.278 7.985,1.157 11.692,2.595 1.041,-3.477 1.663,-7.083 1.828,-10.771 z m 8.245,-16.004 c -0.171,0.049 -0.342,0.099 -0.514,0.146 -1.002,0.271 -2.018,0.504 -3.045,0.697 -0.176,0.032 -0.352,0.063 -0.529,0.093 -1.045,0.182 -2.099,0.329 -3.166,0.429 -0.134,0.012 -0.268,0.019 -0.403,0.03 -0.196,0.017 -0.392,0.03 -0.588,0.044 V 0 h 13.384 c -0.331,-3.734 -1.124,-7.376 -2.358,-10.872 -0.913,0.336 -1.842,0.627 -2.781,0.894 m -8.245,-4.604 c 0.009,-10e-4 0.018,-10e-4 0.027,-10e-4 0.122,-0.011 0.246,-0.017 0.369,-0.028 0.889,-0.082 1.769,-0.203 2.641,-0.354 0.157,-0.026 0.315,-0.054 0.471,-0.083 0.86,-0.16 1.711,-0.351 2.552,-0.577 0.144,-0.038 0.288,-0.081 0.432,-0.122 0.724,-0.204 1.437,-0.44 2.144,-0.691 -2.193,-4.277 -5.089,-8.257 -8.636,-11.826 z m -14.653,-1.985 c 0.836,0.309 1.686,0.579 2.547,0.821 0.142,0.04 0.283,0.083 0.425,0.121 0.843,0.226 1.696,0.418 2.557,0.578 0.155,0.028 0.311,0.056 0.466,0.082 0.869,0.15 1.745,0.271 2.631,0.353 v -13.167 c -3.516,3.404 -6.422,7.168 -8.647,11.203 l 0.021,0.009 M 1.004,-22.659 c 0.676,0.582 1.374,1.132 2.087,1.655 0.129,0.095 0.259,0.19 0.388,0.282 0.715,0.509 1.446,0.991 2.192,1.44 0.026,0.015 0.053,0.03 0.079,0.046 1.971,-3.63 4.424,-7.063 7.313,-10.253 -4.445,1.374 -8.579,3.632 -12.162,6.739 0.035,0.03 0.068,0.062 0.103,0.091 M 49.6,-18.41 c -0.062,0.055 -0.128,0.099 -0.19,0.153 -0.799,0.696 -1.62,1.359 -2.464,1.985 -0.14,0.105 -0.283,0.207 -0.425,0.309 -0.865,0.624 -1.746,1.218 -2.651,1.768 -0.107,0.065 -0.218,0.126 -0.325,0.189 -0.372,0.221 -0.743,0.444 -1.121,0.652 1.558,4.277 2.534,8.753 2.892,13.354 L 57.063,0 C 56.468,-6.761 53.885,-13.135 49.6,-18.41 M 63.22,3.013 c 0,22.096 -17.976,40.071 -40.072,40.071 -21.081,0 -38.413,-16.366 -39.959,-37.058 h -0.112 V 0 h 0.112 c 0.622,-8.356 3.838,-16.222 9.224,-22.654 l -0.088,-0.091 2.028,-2.095 2.166,-2.238 0.089,0.093 c 7.331,-6.511 16.638,-10.074 26.54,-10.074 9.903,0 19.209,3.563 26.54,10.074 l 0.089,-0.093 2.166,2.238 2.028,2.095 -0.08,0.084 c 6.029,7.201 9.329,16.207 9.329,25.674"
             style="fill:#2f2e2f;fill-opacity:1;fill-rule:nonzero;stroke:none"
             id="path24" /></g></g></g><g
       id="g26"><g
         id="g28"
         clip-path="url(#clipPath32)"><g
           id="g34"
           transform="translate(236.1367,292.3398)"><path
             d="m 0,0 c -3.771,0 -6.828,3.057 -6.828,6.828 0,3.771 3.057,6.828 6.828,6.828 3.771,0 6.828,-3.057 6.828,-6.828 C 6.828,3.057 3.771,0 0,0 m 24.303,15.312 -1.75,4.304 c -0.795,1.953 -3.042,2.902 -4.995,2.107 l -6.206,-2.524 c -1.225,1.122 -2.602,2.051 -4.081,2.76 l 0.806,5.836 c 0.289,2.088 -1.184,4.034 -3.272,4.322 l -4.603,0.636 c -2.089,0.289 -4.034,-1.184 -4.323,-3.272 L -5.039,22.837 C -5.469,22.701 -5.898,22.552 -6.324,22.379 -7.453,21.92 -8.501,21.35 -9.469,20.691 l -4.65,3.616 c -1.665,1.294 -4.085,0.991 -5.379,-0.673 l -2.853,-3.669 c -1.294,-1.664 -0.992,-4.085 0.673,-5.379 l 5.293,-4.115 C -16.742,8.875 -16.868,7.222 -16.741,5.558 L -22.196,3.34 c -1.953,-0.795 -2.901,-3.042 -2.107,-4.995 l 1.751,-4.304 c 0.794,-1.954 3.042,-2.902 4.995,-2.108 l 6.206,2.524 c 1.225,-1.122 2.601,-2.05 4.08,-2.76 l -0.806,-5.836 c -0.289,-2.088 1.184,-4.033 3.273,-4.322 l 4.603,-0.636 c 2.088,-0.289 4.033,1.184 4.322,3.273 l 0.918,6.643 c 0.431,0.136 0.86,0.285 1.285,0.458 1.129,0.459 2.178,1.029 3.146,1.689 l 4.649,-3.616 c 1.664,-1.294 4.085,-0.992 5.38,0.673 l 2.852,3.668 c 1.295,1.664 0.992,4.085 -0.672,5.379 l -5.293,4.116 c 0.356,1.594 0.482,3.249 0.355,4.912 l 5.455,2.219 c 1.953,0.794 2.902,3.042 2.107,4.995"
             style="fill:#231f20;fill-opacity:1;fill-rule:nonzero;stroke:none"
             id="path36" /></g><g
           id="g38"
           transform="translate(187.3066,260.8882)"><path
             d="m 0,0 c -5.727,0 -10.37,4.643 -10.37,10.369 0,5.727 4.643,10.37 10.37,10.37 5.727,0 10.37,-4.643 10.37,-10.37 C 10.37,4.643 5.727,0 0,0 M 33.221,21.278 H 23.046 c -1.08,2.278 -2.486,4.372 -4.161,6.218 l 4.473,7.748 c 1.601,2.773 0.642,6.351 -2.131,7.952 l -6.111,3.529 c -2.773,1.6 -6.352,0.642 -7.953,-2.131 L 2.071,35.773 C 1.387,35.828 0.698,35.864 0,35.864 c -1.85,0 -3.652,-0.202 -5.39,-0.576 l -4.473,7.747 c -1.601,2.773 -5.179,3.732 -7.952,2.131 l -6.112,-3.529 c -2.773,-1.6 -3.732,-5.179 -2.131,-7.952 l 5.091,-8.817 c -1.413,-2.04 -2.537,-4.295 -3.31,-6.707 h -8.944 c -3.202,0 -5.821,-2.62 -5.821,-5.822 V 5.282 c 0,-3.202 2.619,-5.822 5.821,-5.822 h 10.175 c 1.081,-2.278 2.486,-4.372 4.161,-6.218 l -4.473,-7.747 c -1.601,-2.773 -0.642,-6.352 2.131,-7.953 l 6.111,-3.528 c 2.773,-1.6 6.352,-0.642 7.953,2.131 l 5.092,8.82 c 0.684,-0.054 1.373,-0.09 2.071,-0.09 1.85,0 3.652,0.202 5.39,0.576 l 4.473,-7.747 c 1.601,-2.773 5.179,-3.732 7.952,-2.131 l 6.112,3.528 c 2.773,1.602 3.732,5.18 2.131,7.953 l -5.091,8.817 c 1.413,2.04 2.537,4.295 3.31,6.707 h 8.944 c 3.202,0 5.821,2.62 5.821,5.821 v 7.058 c 0,3.202 -2.619,5.821 -5.821,5.821"
             style="fill:#231f20;fill-opacity:1;fill-rule:nonzero;stroke:none"
             id="path40" /></g></g></g></g></svg>
